<svg width="287" height="287" viewBox="0 0 287 287" fill="none" xmlns="http://www.w3.org/2000/svg">
<path d="M65.3192 119.841C40.5276 150.413 47.1638 196.876 80.1416 223.618C113.119 250.361 159.951 247.257 184.742 216.685C196.347 202.374 170.691 187.34 169.045 169.718C167.174 149.694 180.761 135.394 163.22 121.17C144.266 105.799 138.512 123.794 117.22 127.691C101.467 130.575 75.8615 106.841 65.3192 119.841Z" fill="#DBD2C6"/>
<circle cx="24.8522" cy="24.8522" r="24.8522" transform="matrix(-0.776711 -0.629858 -0.629858 0.776711 256.249 164.738)" fill="#DBD2C6"/>
<circle cx="24.8522" cy="24.8522" r="24.8522" transform="matrix(-0.776711 -0.629858 -0.629858 0.776711 137.276 68.2603)" fill="#DBD2C6"/>
<circle cx="24.8522" cy="24.8522" r="24.8522" transform="matrix(-0.776711 -0.629858 -0.629858 0.776711 227.781 80.3984)" fill="#DBD2C6"/>
</svg>
