<svg width="33" height="33" viewBox="0 0 33 33" fill="none" xmlns="http://www.w3.org/2000/svg">
<path d="M2.68826 23.1854L3.17334 23.3067L2.68826 23.1854L0.717042 31.0703L0.710359 31.097C0.671117 31.2537 0.629207 31.421 0.615459 31.5615C0.600323 31.7163 0.603851 31.9773 0.813261 32.1867L1.16608 31.8339L0.813264 32.1867C1.02268 32.3961 1.28373 32.3997 1.43846 32.3845C1.579 32.3708 1.74635 32.3289 1.90304 32.2896L1.92972 32.283L9.81461 30.3117C9.82974 30.308 9.84474 30.3042 9.85964 30.3005C10.0824 30.2451 10.2795 30.196 10.4586 30.0946L10.2122 29.6595L10.4586 30.0946C10.6376 29.9933 10.7811 29.8495 10.9432 29.687C10.9541 29.6761 10.965 29.6652 10.976 29.6542L10.976 29.6541L29.9393 10.6908L29.9626 10.6676C30.2761 10.3542 30.5461 10.0841 30.7333 9.8388C30.9339 9.57588 31.0858 9.28346 31.0858 8.92308C31.0858 8.56269 30.9339 8.27027 30.7333 8.00735C30.5461 7.76202 30.2761 7.492 29.9626 7.1786L29.9393 7.15531L25.8447 3.06066L25.8214 3.03741C25.508 2.72396 25.238 2.45389 24.9927 2.2667C24.7297 2.0661 24.4373 1.91421 24.0769 1.91421C23.7165 1.91421 23.4241 2.0661 23.1612 2.2667C22.9159 2.45388 22.6458 2.72393 22.3325 3.03736L22.3092 3.06066L3.34585 22.024C3.33483 22.035 3.32388 22.0459 3.31302 22.0567C3.15055 22.2189 3.00672 22.3624 2.90536 22.5414L3.33726 22.786L2.90536 22.5414C2.80399 22.7205 2.75492 22.9176 2.69949 23.1404C2.69578 23.1553 2.69205 23.1703 2.68826 23.1854Z" stroke="#89837C"/>
<path d="M18 5.66667L25 1L32 8L27.3333 15L18 5.66667Z" fill="#89837C" stroke="#89837C"/>
</svg>
