<svg width="29" height="29" viewBox="0 0 29 29" fill="none" xmlns="http://www.w3.org/2000/svg">
<path d="M11.7041 8.77539C11.8864 8.61914 12.0843 8.4681 12.2979 8.32227C12.5166 8.17643 12.751 8.05143 13.001 7.94727C13.251 7.83789 13.5218 7.75456 13.8135 7.69727C14.1104 7.63477 14.4281 7.60352 14.7666 7.60352C15.2301 7.60352 15.652 7.66862 16.0322 7.79883C16.4176 7.92383 16.7458 8.10612 17.0166 8.3457C17.2874 8.58008 17.4984 8.86654 17.6494 9.20508C17.8005 9.53841 17.876 9.91341 17.876 10.3301C17.876 10.7363 17.8161 11.0879 17.6963 11.3848C17.5765 11.6816 17.4281 11.9395 17.251 12.1582C17.0739 12.377 16.8812 12.5671 16.6729 12.7285C16.4645 12.8848 16.2666 13.0332 16.0791 13.1738C15.8916 13.3145 15.7301 13.4525 15.5947 13.5879C15.4593 13.7233 15.3786 13.877 15.3525 14.0488L15.165 15.2207H13.8135L13.6807 13.916C13.6755 13.89 13.6729 13.8691 13.6729 13.8535C13.6729 13.8327 13.6729 13.8066 13.6729 13.7754C13.6729 13.541 13.7301 13.3379 13.8447 13.166C13.9645 12.9941 14.113 12.8327 14.29 12.6816C14.4671 12.5254 14.6546 12.377 14.8525 12.2363C15.0557 12.0905 15.2458 11.9342 15.4229 11.7676C15.5999 11.6009 15.7458 11.4108 15.8604 11.1973C15.9801 10.9837 16.04 10.7311 16.04 10.4395C16.04 10.252 16.0036 10.0827 15.9307 9.93164C15.8577 9.77539 15.7562 9.64258 15.626 9.5332C15.501 9.42383 15.3499 9.34049 15.1729 9.2832C14.9958 9.22591 14.8031 9.19727 14.5947 9.19727C14.2874 9.19727 14.027 9.23112 13.8135 9.29883C13.6051 9.36133 13.4281 9.43424 13.2822 9.51758C13.1364 9.60091 13.0114 9.67643 12.9072 9.74414C12.8083 9.81185 12.7197 9.8457 12.6416 9.8457C12.4489 9.8457 12.3109 9.76497 12.2275 9.60352L11.7041 8.77539ZM13.2197 18.2129C13.2197 18.0462 13.2484 17.89 13.3057 17.7441C13.3682 17.5931 13.4541 17.4655 13.5635 17.3613C13.6729 17.252 13.8005 17.166 13.9463 17.1035C14.0973 17.0358 14.2588 17.002 14.4307 17.002C14.5973 17.002 14.7536 17.0358 14.8994 17.1035C15.0505 17.166 15.1781 17.252 15.2822 17.3613C15.3916 17.4655 15.4775 17.5931 15.54 17.7441C15.6077 17.89 15.6416 18.0462 15.6416 18.2129C15.6416 18.3848 15.6077 18.5436 15.54 18.6895C15.4775 18.8353 15.3916 18.9629 15.2822 19.0723C15.1781 19.1764 15.0505 19.2572 14.8994 19.3145C14.7536 19.377 14.5973 19.4082 14.4307 19.4082C14.2588 19.4082 14.0973 19.377 13.9463 19.3145C13.8005 19.2572 13.6729 19.1764 13.5635 19.0723C13.4541 18.9629 13.3682 18.8353 13.3057 18.6895C13.2484 18.5436 13.2197 18.3848 13.2197 18.2129Z" fill="white"/>
<circle cx="14.2822" cy="14.2988" r="13" stroke="white" stroke-width="2"/>
</svg>
